<?xml version="1.0" encoding="UTF-8" standalone="no"?>
<!-- Uploaded to: SVG Repo, www.svgrepo.com, Generator: SVG Repo Mixer Tools -->

<svg
   width="800px"
   height="800px"
   viewBox="0 0 48 48"
   version="1.1"
   id="svg3"
   sodipodi:docname="logo.svg"
   inkscape:version="1.4 (e7c3feb100, 2024-10-09)"
   xmlns:inkscape="http://www.inkscape.org/namespaces/inkscape"
   xmlns:sodipodi="http://sodipodi.sourceforge.net/DTD/sodipodi-0.dtd"
   xmlns="http://www.w3.org/2000/svg"
   xmlns:svg="http://www.w3.org/2000/svg">
  <defs
     id="defs3" />
  <sodipodi:namedview
     id="namedview3"
     pagecolor="#ffffff"
     bordercolor="#000000"
     borderopacity="0.25"
     inkscape:showpageshadow="2"
     inkscape:pageopacity="0.0"
     inkscape:pagecheckerboard="0"
     inkscape:deskcolor="#d1d1d1"
     inkscape:zoom="0.3822796"
     inkscape:cx="-9.1556022"
     inkscape:cy="699.7496"
     inkscape:window-width="1920"
     inkscape:window-height="1052"
     inkscape:window-x="0"
     inkscape:window-y="0"
     inkscape:window-maximized="1"
     inkscape:current-layer="g3" />
  <title
     id="title1">ai</title>
  <g
     id="Layer_2"
     data-name="Layer 2">
    <g
       id="g3">
      <g
         id="g4">
        <g
           id="invisible_box"
           data-name="invisible box">
          <rect
             width="48"
             height="48"
             fill="none"
             id="rect1" />
        </g>
        <path
           d="M 45.6,18.7 41,14.9 V 7.5 A 1,1 0 0 0 40.4,6.6 L 30.5,2.1 H 30.1 L 29.5,2.3 24,5.9 18.5,2.2 17.9,2 H 17.5 L 7.6,6.6 A 1,1 0 0 0 7,7.5 v 7.4 L 2.4,18.7 A 0.8,0.8 0 0 0 2,19.5 v 9 0 a 0.8,0.8 0 0 0 0.4,0.8 L 7,33.1 v 7.4 a 1,1 0 0 0 0.6,0.9 l 9.9,4.5 h 0.4 l 0.6,-0.2 5.5,-3.6 5.5,3.7 0.6,0.2 h 0.4 l 9.9,-4.5 A 1,1 0 0 0 41,40.6 v -7.5 l 4.6,-3.8 A 0.8,0.8 0 0 0 46,28.6 v -9.2 0 a 0.8,0.8 0 0 0 -0.4,-0.7 z m -5.1,6.8 H 42 v 1.6 l -3.5,2.8 -0.4,0.3 -0.4,-0.2 a 1.4,1.4 0 0 0 -2,0.7 1.5,1.5 0 0 0 0.6,2 L 37,33 v 0 5.4 l -6.6,3.1 -4.2,-2.8 -0.7,-0.5 V 25.5 H 27 a 1.5,1.5 0 0 0 0,-3 H 25.5 V 9.7 L 26.2,9.2 30.4,6.4 37,9.5 v 5.4 0 l -0.7,0.3 a 1.5,1.5 0 0 0 -0.6,2 1.4,1.4 0 0 0 1.3,0.9 l 0.7,-0.2 0.4,-0.2 0.4,0.3 3.5,2.9 v 1.6 h -1.5 a 1.5,1.5 0 0 0 0,3 z m -19.5,0 h 1.5 v 12.8 l -0.7,0.5 -4.2,2.8 -6.6,-3.1 v -5.4 0 l 0.7,-0.3 a 1.5,1.5 0 0 0 0.6,-2 1.4,1.4 0 0 0 -2,-0.7 L 9.9,30.3 9.5,30 6,27.1 v -1.6 h 1.5 a 1.5,1.5 0 0 0 0,-3 H 6 v -1.6 l 3.5,-2.8 0.4,-0.3 0.4,0.2 0.7,0.2 a 1.4,1.4 0 0 0 1.3,-0.9 1.5,1.5 0 0 0 -0.6,-2 L 11,15 v 0 -5.5 l 6.6,-3.1 4.2,2.8 0.7,0.5 V 22.5 H 21 a 1.5,1.5 0 0 0 0,3 z"
           id="path1"
           style="fill:#ff5555" />
        <path
           d="m 13.9,9.9 a 1.8,1.8 0 0 0 0,2.2 l 2.6,2.5 v 2.8 l -4,4 v 5.2 l 4,4 v 2.8 l -2.6,2.5 a 1.8,1.8 0 0 0 0,2.2 1.5,1.5 0 0 0 1.1,0.4 1.5,1.5 0 0 0 1.1,-0.4 l 3.4,-3.5 v -5.2 l -4,-4 v -2.8 l 4,-4 V 13.4 L 16.1,9.9 a 1.8,1.8 0 0 0 -2.2,0 z"
           id="path2"
           style="fill:#ff5555" />
        <path
           d="m 31.5,14.6 2.6,-2.5 a 1.8,1.8 0 0 0 0,-2.2 1.8,1.8 0 0 0 -2.2,0 l -3.4,3.5 v 5.2 l 4,4 v 2.8 l -4,4 v 5.2 l 3.4,3.5 a 1.7,1.7 0 0 0 2.2,0 1.8,1.8 0 0 0 0,-2.2 l -2.6,-2.5 v -2.8 l 4,-4 v -5.2 l -4,-4 z"
           id="path3"
           style="fill:#ff5555" />
      </g>
    </g>
  </g>
</svg>
